<!-- Generator: Adobe Illustrator 19.1.0, SVG Export Plug-In  -->
<svg version="1.1"
	 xmlns="http://www.w3.org/2000/svg" xmlns:xlink="http://www.w3.org/1999/xlink" xmlns:a="http://ns.adobe.com/AdobeSVGViewerExtensions/3.0/"
	 x="0px" y="0px" width="217.1px" height="40px" viewBox="0 0 217.1 40" style="enable-background:new 0 0 217.1 40;"
	 xml:space="preserve">
<style type="text/css">
	.st0{fill:#02602D;}
	.st1{fill:#CDCC03;}
</style>
<defs>
</defs>
<g>
	<g>
		<path class="st0" d="M28.1,22.1V8.2L14.5,0l0,13.8L28.1,22.1z M215.9,21.9l-7-17.4h-3.7l7,17.4H215.9z M156.5,10.2
			c3.4,0,5.8,1.4,5.8,4.2c0,2.4-1.7,4-4.1,4.1l-0.9,0.1l-0.7,0.1L156.5,10.2z M192.1,27.7l3.5-8.4l3.4,8.4H192.1z M158,3.3h-14v36.5
			h12.4V24.9h1.3c1.6,0,4.2,2.7,5.6,5.9l1.4,3.1l1.1,2.4l0.7,1.7l0.7,1.5l0.2,0.4h7.5h5.1h7.3l1.9-5h12.5l2.1,5h13.1L202.8,4.4
			h-13.4L177.3,34l-0.6-1.3l-1.4-3.1c-1.7-3.8-3.4-6.4-5.3-7.4c0.1,0,0.9-0.7,1.9-1.5c2-1.8,2.6-4.3,2.6-6.9c0-3.4-2.5-6.4-5.4-8.2
			C166.7,4.1,163.3,3.3,158,3.3 M106.4,21.4c0,10.3,7.1,18.4,20,18.6c6.3,0.1,10-0.9,13.9-2.5l0-18.5h-14.1v7.5h4.4v3.8
			c-0.2,0-0.3,0-0.5,0c-2.7,0-5.2-0.6-7.2-1.6c-2.1-1.9-3.4-4.5-3.4-7.3c0-3.2,1.5-5.9,4-7.8c1.9-0.8,4.2-1.3,6.6-1.3
			c4,0,7.5,1.3,9.8,3.3l0-9c-3.2-1.9-6.2-3.7-13.3-3.8C115.4,2.9,106.4,11.2,106.4,21.4 M103.7,3.7H91.4v35.9h12.3V3.7z M58.8,3.7
			H47.2v35.9h12.4V23L75,39.6h11.9V3.7H74.5v16.8L58.8,3.7z M12.8,8.8L0,1.2v24c0,8.1,9.6,14.6,21.4,14.6c11.8,0,21.4-6.5,21.4-14.6
			L42.8,8.8L29.8,1.1v21.7c0,2.7-3.8,5.1-8.5,5.1c-4.7,0-8.5-2.2-8.5-4.9V8.8z"/>
	</g>
	<polygon class="st1" points="14.4,13.8 28,22.1 28,8.2 14.4,0 	"/>
</g>
</svg>
