<svg id="Layer_1" xmlns="http://www.w3.org/2000/svg" viewBox="0 0 192.9 43.4"><style>.st0{fill:#5f6062}</style><path class="st0" d="M72.3 34c0 2.3 0 4.8-4.2 4.8-4 0-4.3-2.2-4.3-4.8v-5.8c0-1.3-.6-1.2-1.9-1.4v-.3l3.5-.4v8c0 1.4 0 4 2.7 4 3.1 0 3.1-2.1 3.1-3.9v-8.1h1.1V34zM75.5 31.7c0-1.1-.9-1.2-1.4-1.2v-.3l2.8-.4v2.5c.3-.7 1.2-2.5 3.1-2.5 1.8 0 2.2.9 2.2 2.2v6.6h-1.4v-6c0-1 0-1.9-1.3-1.9-1.4 0-2.6 2.3-2.6 3.5v4.4h-1.4v-6.9zM85.4 31.7c0-1.1-.9-1.2-1.4-1.2v-.3l2.8-.4v8.8h-1.4v-6.9zm-.4-4.8c0-.6.5-1 1.1-1s1 .5 1 1c0 .6-.5 1-1 1-.7.1-1.1-.4-1.1-1zM90 27.9c0-1.2-.4-1.5-1.5-1.6V26l2.9-.4v5.6c.3-.6 1-1.5 2.4-1.5 2.4 0 3.4 2.2 3.4 4.6 0 2.7-1.1 4.5-3.6 4.5-1.2 0-1.9-.6-2.3-1l-1 .8h-.5V27.9h.2zm1.5 6.9c0 1.3 0 3.3 2.2 3.3 1.8 0 2-2.5 2-3.8 0-1.5-.4-3.8-2.2-3.8-1.5 0-2.1 2-2.1 2.9v1.4h.1zM104 37.4c-.4.5-1.2 1.4-2.6 1.4-1.3 0-2.2-.9-2.2-2.2 0-2.7 3.7-2.7 4.9-2.8v-.7c0-1.3 0-2.6-1.6-2.6-1.4 0-1.5 1.2-1.5 1.6h-1.7c.1-1.1.8-2.4 3.3-2.4s2.9 1.3 2.9 3v5.8h-1.4l-.1-1.1zm0-3c-.8 0-3.3.1-3.3 2 0 .7.4 1.5 1.4 1.5 1.3 0 1.9-1.5 1.9-2.4v-1.1zM107.8 27.5c0-1.2-.9-1.2-1.5-1.2V26l2.9-.4v8l3.5-3.6h1.3l-3.4 3.6 4.1 5.1H113l-3.6-4.5v4.5H108V27.5h-.2zM122.3 38.5c-.2.1-1.2.3-2.3.3-2.7 0-4.3-1.7-4.3-4.8 0-2.7 1-4.3 3.7-4.3 1.7 0 3.1 1 3.1 3.2v.3h-5.4v.4c0 1.8 1.3 4.4 3.9 4.4.4 0 .9-.1 1.3-.2v.7zm-1.4-6c0-1-.6-2-1.7-2-1.7 0-2 1.5-2 2.2h3.8v-.2h-.1z"/><g><path class="st0" d="M73.6 18.3h-.8c-.2 1.8-.3 2.9-2.3 2.9h-2.3c-2.2 0-2.2-.2-2.2-2.3V4.8c0-.1-.1-.2-.2-.2l-4.7.6v.4c1.8.2 2.6.1 2.6 1.9V22c0 .1.1.2.2.2h9.3c.1 0 .2-.1.2-.2l.2-3.7zM85.2 22v-8c0-2.4-.6-4.3-4.2-4.3-3.3 0-4.4 1.6-4.6 3.1 0 .1.1.2.2.2h1.9c.1 0 .2-.1.2-.2.1-.8.4-2.1 2.2-2.1 2.2 0 2.2 1.9 2.2 3.7v1c-1.7 0-6.9.2-6.9 3.9 0 1.8 1.3 3.1 3.2 3.1 2 0 3.1-1.3 3.7-2v1.4c0 .1.1.2.2.2h1.6c.2.2.3.1.3 0zm-2-4.2c0 1.3-.9 3.4-2.7 3.4-1.5 0-2-1.2-2-2.2 0-2.6 3.5-2.7 4.7-2.8v1.6zM180.3 14.3c0-3.1-1.9-4.6-4.4-4.6-3.8 0-5.3 2.2-5.3 6 0 4.4 2.3 6.8 6.1 6.8 1.6 0 2.9-.3 3.3-.5v-.9c-.6.2-1.2.3-1.9.3-3.7 0-5.5-3.7-5.5-6.3v-.6h7.5c.1 0 .2-.1.2-.2 0 .1 0 0 0 0zm-2.3-.5h-5.4c.1-.9.5-3.1 2.9-3.1 1.6 0 2.5 1.3 2.5 2.8v.3zM192.9 12.8c0-1.9-.6-3.2-3.1-3.2-2.6 0-4 2.5-4.4 3.5V9.9c0-.1-.1-.2-.2-.2l-3.8.6v.4c.8.1 2 .2 2 1.7v9.5c0 .1.1.2.2.2h1.6c.1 0 .2-.1.2-.2v-6c0-1.7 1.8-5 3.7-5 1.8 0 1.8 1.3 1.8 2.7v8.3c0 .1.1.2.2.2h1.6c.1 0 .2-.1.2-.2v-9.1zM167.8 12.8c0-1.9-.6-3.2-3.1-3.2-2.6 0-4 2.5-4.4 3.5V9.9c0-.1-.1-.2-.2-.2l-3.8.6v.4c.8.1 2 .2 2 1.7v9.5c0 .1.1.2.2.2h1.6c.1 0 .2-.1.2-.2v-6c0-1.7 1.8-5 3.7-5 1.8 0 1.8 1.3 1.8 2.7v8.3c0 .1.1.2.2.2h1.6c.1 0 .2-.1.2-.2v-9.1zM153.6 12.8c0-1.9-.6-3.2-3.1-3.2-2.6 0-4 2.5-4.4 3.5V9.9c0-.1-.1-.2-.2-.2l-3.8.6v.4c.8.1 2 .2 2 1.7v9.5c0 .1.1.2.2.2h1.6c.1 0 .2-.1.2-.2v-6c0-1.7 1.8-5 3.7-5 1.8 0 1.8 1.3 1.8 2.7v8.3c0 .1.1.2.2.2h1.6c.1 0 .2-.1.2-.2v-9.1zM99.2 12.8c0-1.9-.6-3.2-3.1-3.2-2.6 0-4 2.5-4.4 3.5V9.9c0-.1-.1-.2-.2-.2l-3.8.6v.4c.8.1 2 .2 2 1.7v9.5c0 .1.1.2.2.2h1.6c.1 0 .2-.1.2-.2v-6c0-1.7 1.8-5 3.7-5 1.8 0 1.8 1.3 1.8 2.7v8.3c0 .1.1.2.2.2H99c.1 0 .2-.1.2-.2v-9.1zM127.6 13.9c0-2.1 0-4.2-3.1-4.2-2.4 0-3.4 2.3-3.8 3.2h-.1c0-1.9-.7-3.2-3.1-3.2-2.1 0-3.5 2.2-3.8 3.2h-.1V10c0-.1-.1-.2-.2-.2l-3.8.6v.4c.8.1 2 .2 2 1.7V22c0 .1.1.2.2.2h1.6c.1 0 .2-.1.2-.2v-6c0-2.2 1.6-5 3.2-5 1.7 0 1.7 1.3 1.7 2.7V22c0 .1.1.2.2.2h1.6c.1 0 .2-.1.2-.2v-6.1c0-2.4 1.8-4.9 3.2-4.9 1.8 0 1.8 1.4 1.8 3.3V22c0 .1.1.2.2.2h1.6c.1 0 .2-.1.2-.2.1 0 .1-8.1.1-8.1zM139.5 21.9v-8c0-2.4-.6-4.3-4.2-4.3-3.3 0-4.4 1.6-4.6 3.1 0 .1.1.2.2.2h1.9c.1 0 .2-.1.2-.2.1-.8.4-2.1 2.2-2.1 2.2 0 2.2 1.9 2.2 3.7v1c-1.7 0-6.9.2-6.9 3.9 0 1.8 1.3 3.1 3.2 3.1 2 0 3.1-1.3 3.7-2v1.4c0 .1.1.2.2.2h1.6c.2.3.3.2.3 0 0 .1 0 0 0 0zm-2-4.1c0 1.3-.9 3.4-2.7 3.4-1.5 0-2-1.2-2-2.2 0-2.6 3.5-2.7 4.7-2.8v1.6zM137.6 7.7c.7 0 1.3-.6 1.3-1.3 0-.7-.6-1.3-1.3-1.3-.8 0-1.4.6-1.4 1.3 0 .8.6 1.3 1.4 1.3zm-4.4 0c.7 0 1.4-.6 1.4-1.3 0-.7-.6-1.3-1.4-1.3-.7 0-1.3.6-1.3 1.3-.1.8.6 1.3 1.3 1.3zM107.5 21.5c-1.3 0-2.2-.3-2.2-1.9v-7.7c0-.7 1.5-1.1 2.2-1.1v-.5h-2.2V6.8l-2 1.1v2.5h-1.9v.5c.6.1 1.9.3 1.9 1.1v6.9c0 2.5.2 3.7 3.8 3.7.5 0 1 0 1.5-.2v-1c-.4 0-.7.1-1.1.1z"/></g><g><linearGradient id="SVGID_1_" gradientUnits="userSpaceOnUse" x1="4.7732" y1="-13.8667" x2="46.3974" y2="33.3073" gradientTransform="translate(0 2)"><stop offset="0" stop-color="#b9d47e"/><stop offset=".0787" stop-color="#accb76"/><stop offset=".4528" stop-color="#75a252"/><stop offset=".7318" stop-color="#5b8f22"/><stop offset=".8825" stop-color="#5b8f22"/><stop offset="1" stop-color="#5b8f22"/></linearGradient><path d="M54.9 23.8c-.3-2.3-1.1-4.4-2.5-6.3-1.7-2.3-4.2-5.2-12.9-8.5C28.3 4.8 26.8 5.4 25.2.6c-.1-.2-.2-.6-.3-.6 0 0-.2.5-.2 1.1-.1 2.6-.2 7.9 3.2 9.8 3.1 1.8 7.3 3 9.5 3.7 4 1.4 7.6 3.5 9.6 6 1.6 2.1 2.9 6.1 1.3 9.7-2.1 4.7-6.4 6.1-9.1 7 0 0-2.8 1.1-7.7 1.6v4.2c2.6-.2 4.9-.7 7-1.2C56.2 36.8 55 25.4 54.9 23.8z" fill="url(#SVGID_1_)"/><linearGradient id="SVGID_2_" gradientUnits="userSpaceOnUse" x1="33.3703" y1="-2.9548" x2="49.1875" y2="28.957" gradientTransform="translate(0 2)"><stop offset="0" stop-color="#bed600"/><stop offset=".1601" stop-color="#b8d372"/><stop offset="1" stop-color="#5b8f22"/></linearGradient><path d="M54.9 23.8c-.3-2.3-1.1-4.4-2.5-6.3-1.7-2.3-4.2-5.2-12.9-8.5C28.3 4.8 26.8 5.4 25.2.7c-.1-.2-.2-.6-.4-.7 0 0 .5 6.6 5.1 8.5 3.3 1.3 7.6 2.9 9.8 3.6 6.2 2.1 8.7 4.6 10.2 7.4 2.1 3.8 1.8 7.7 0 10.9-1.1 2-2.8 3.5-4.8 4.6l1.7 2.1c8.9-4.9 8.2-12 8.1-13.3z" fill="url(#SVGID_2_)"/><linearGradient id="SVGID_3_" gradientUnits="userSpaceOnUse" x1="1.8314" y1="18.4336" x2="35.2999" y2="32.5934" gradientTransform="translate(0 2)"><stop offset=".1704" stop-color="#b9d47e"/><stop offset=".4178" stop-color="#8bb261"/><stop offset=".6749" stop-color="#629446"/><stop offset=".8779" stop-color="#5b8f22"/><stop offset=".9882" stop-color="#598e24"/><stop offset="1" stop-color="#5b8f22"/></linearGradient><path d="M16.4 37.8c-5.4-1.3-8.2-4.4-8.6-6.6-.8-4.6 5.3-7.1 7.8-7.7 4.4-1 9.4-1.1 13.9-.6 1 .1 11 1.1 10.5 6.9-.1 1.7-1.5 3.1-2.9 4.1-2.4 1.6-5.9 2.5-5.9 2.5-.2.3 4.8 0 8.3-1.3 6.3-2.3 7.1-7.6 5.5-10.6 0 0 .1 0 0 0-.3-.6-.6-1-.9-1.4-2-2.3-4.8-3.8-7.5-4.9-3.6-1.5-7.6-2-11.8-2.1-4.7 0-9.6.5-13.8 2-2.2.8-4.3 1.9-6.2 3.3-1.7 1.2-3.3 2.9-4.1 4.8-.2.6-.2.7-.4 1.2-.3 1-.9 5.3 1.9 8.5 3.9 4.3 12 6.9 19.8 7.4 3.3.2 6.5.1 9.5-.2v-4.2c-3.9.5-9.1.4-15.1-1.1z" fill="url(#SVGID_3_)"/><linearGradient id="SVGID_4_" gradientUnits="userSpaceOnUse" x1="48.969" y1="54.4394" x2=".9371" y2="54.4394" gradientTransform="matrix(1 0 0 -1 0 82.302)"><stop offset="0" stop-color="#bed600"/><stop offset=".7318" stop-color="#5b8f22"/><stop offset=".8825" stop-color="#5b8f22"/><stop offset="1" stop-color="#5b8f22"/></linearGradient><path d="M15.6 23.4c4.4-1 9.4-1.1 13.9-.6 1 .1 11 1.1 10.5 6.9-.1 1.7-1.5 3.1-2.9 4.1-2.3 1.6-5.7 2.5-5.7 2.5s-.2 0-.2.1c.3.2 5.5-.8 8.5-2.7 2.9-1.8 3.5-4 3.3-6.4-.3-2.4-3-4.8-5.7-5.9-3.6-1.5-8.2-2.1-12.3-2.1-6.8 0-16.3.9-20 6.9-.2.3-1.3 2.2-1.1 4.6h3.8c-.4-4.4 5.5-6.8 7.9-7.4z" fill="url(#SVGID_4_)"/><path d="M35.1 38.4c-4 .7-10.6 1.3-18.8-.7-5.4-1.3-8.2-4.4-8.6-6.6v-.4H3.9c.1 1.5.7 3.2 2.3 4.8 2.9 3.1 10.5 5.3 15.9 5.6 6.2.3 11.5.1 16-.9 3.7-.8 6.6-1.9 8.8-3.2l-1.7-2.1c-4 2.4-8.8 3.2-10.1 3.5z" fill="#5b8f22"/></g></svg>