<?xml version="1.0" encoding="utf-8"?>
<!-- Generator: Adobe Illustrator 22.1.0, SVG Export Plug-In . SVG Version: 6.00 Build 0)  -->
<svg version="1.1" id="Слой_1" xmlns="http://www.w3.org/2000/svg" xmlns:xlink="http://www.w3.org/1999/xlink" x="0px" y="0px"
	 viewBox="0 0 35 27.7" style="enable-background:new 0 0 35 27.7;" xml:space="preserve">
<style type="text/css">
	.st0{fill:#D5B36A;}
</style>
<g>
	<path class="st0" d="M4.4,22.3c0,0,0.2-3.9-2.8-4.4C0,17.7-1,19.4,1.5,20.3C2.4,20.6,3.5,20.3,4.4,22.3L4.4,22.3z M23.2,26.1
		c-0.5-0.6-1.2-1.4-2.2-2.2c0.3-0.1,0.6-0.2,0.8,0c0.5,0.4,1.3,1.3,1.7,2C23.8,26.6,23.6,26.6,23.2,26.1L23.2,26.1z M12.6,21.2
		c0.5-0.3,1.7-0.9,4-0.5c2,0.3,2.4,1,2.3,1.7C16.3,20.9,13.5,21.1,12.6,21.2L12.6,21.2z M24.8,27.2c0.1-0.5-0.2-1.2-0.2-1.2
		s1.2-1.9-0.8-4.4c-0.8-1-1.7-1.8-2.9-2.4c-0.4-0.2-0.4-0.3-0.8-0.9c-0.9-1.2-1.7-1.6-2-1.9c-0.4-0.2-0.6-0.2-0.3,0.7
		c0.3,0.8,0.1,1.1-0.2,1.1c0,0,0,0,0,0s0,0,0,0l0,0c-1-0.1-2.1,0-3.3,0.2c-4.3,0.9-5.1,4.8-5.1,4.8s4.1-3.7,9.7-0.6
		c-0.1,0.3-0.3,0.6-0.4,0.8c-0.3,0.5-0.8,1-0.7,1.2c0.1,0.2,1.3,0.1,2.1-0.3c0.3-0.1,0.6-0.3,0.8-0.4c1,0.9,1.8,1.7,2.5,2.6
		c0.3,0.4,0.6,0.7,0.8,0.9C24.4,27.9,24.7,27.8,24.8,27.2L24.8,27.2z M30.8,7.1c-1.5-0.2-3.6-0.2-6.2,0.1c0.2-0.6,0.5-1,1.1-1.2
		c1.2-0.2,3.7-0.1,5.3,0.4C32.5,6.8,32.1,7.1,30.8,7.1L30.8,7.1z M9.2,15.5c0.2-1.2,1.1-3.7,4.8-6.5c3.1-2.4,4.7-2,5.6-0.9
		C13.8,9.9,10.2,14.2,9.2,15.5L9.2,15.5z M34.6,6.3c-0.6-0.9-2-1.4-2-1.4s-1.1-4.3-7.5-4.8c-2.5-0.2-5,0-7.4,0.8
		c-0.9,0.3-1,0.2-2.5,0c-3-0.4-4.7,0.2-5.5,0.4c-0.8,0.2-1.1,0.6,0.5,1.3c1.6,0.7,1.7,1.4,1.3,1.8l0,0c0,0,0,0-0.1,0c0,0,0,0,0,0
		c-1.5,1.3-2.9,3-4.1,5c-4.5,7.5,0,13.9,0,13.9S7.7,12.4,20,8.6c0.3,0.6,0.5,1.3,0.6,1.6c0.3,1.2,0.3,2.5,0.7,2.7
		c0.4,0.2,1.9-1.8,2.5-3.5c0.2-0.6,0.4-1.2,0.5-1.8c2.6-0.3,4.9-0.2,7.2,0c1,0.1,1.8,0.1,2.4,0.1C35.1,7.7,35.4,7.3,34.6,6.3
		L34.6,6.3z"/>
</g>
</svg>
