<?xml version="1.0" encoding="utf-8"?>
<!-- Generator: Adobe Illustrator 24.1.3, SVG Export Plug-In . SVG Version: 6.00 Build 0)  -->
<svg version="1.1" xmlns="http://www.w3.org/2000/svg" xmlns:xlink="http://www.w3.org/1999/xlink" x="0px" y="0px"
	 viewBox="0 0 600 600" style="enable-background:new 0 0 600 600;" xml:space="preserve">
<style type="text/css">
	.st0{fill-rule:evenodd;clip-rule:evenodd;fill:#FFFFFF;}
</style>
<g id="Слой_1">
</g>
<g id="Слой_2">
	<g id="Icon_Shape">
		<defs>
			<path id="SVGID_1_" d="M591.9,443.5c0,3.2-0.1,10.1-0.3,15.5c-0.5,13.1-1.5,30-3.1,37.7c-2.4,11.6-5.9,22.5-10.6,31.6
				c-5.5,10.8-12.5,20.4-20.9,28.7c-8.3,8.3-17.9,15.3-28.7,20.8c-9.1,4.7-20.1,8.2-31.8,10.6c-7.6,1.5-24.4,2.6-37.4,3
				c-5.4,0.2-12.3,0.3-15.5,0.3l-287.6,0c-3.2,0-10.1-0.1-15.5-0.3c-13.1-0.5-30-1.5-37.7-3.1c-11.6-2.4-22.5-5.9-31.6-10.6
				c-10.8-5.5-20.4-12.5-28.7-20.9c-8.3-8.3-15.3-17.9-20.8-28.7c-4.7-9.1-8.2-20.1-10.6-31.8c-1.5-7.6-2.6-24.4-3-37.4
				c-0.2-5.4-0.3-12.3-0.3-15.5l0-287.6c0-3.2,0.1-10.1,0.3-15.5c0.5-13.1,1.5-30,3.1-37.7c2.4-11.6,5.9-22.5,10.6-31.6
				c5.5-10.8,12.5-20.4,20.9-28.7C51.1,34,60.7,27,71.5,21.5c9.1-4.7,20.1-8.2,31.8-10.6c7.6-1.5,24.4-2.6,37.4-3
				c5.4-0.2,12.3-0.3,15.5-0.3l287.6,0c3.2,0,10.1,0.1,15.5,0.3c13.1,0.5,30,1.5,37.7,3.1c11.6,2.4,22.5,5.9,31.6,10.6
				c10.8,5.5,20.4,12.5,28.7,20.9c8.3,8.3,15.3,17.9,20.8,28.7c4.7,9.1,8.2,20.1,10.6,31.8c1.5,7.6,2.6,24.4,3,37.4
				c0.2,5.4,0.3,12.3,0.3,15.5L591.9,443.5z"/>
		</defs>
		<linearGradient id="SVGID_2_" gradientUnits="userSpaceOnUse" x1="299.9596" y1="591.689" x2="299.9596" y2="7.6443">
			<stop  offset="0" style="stop-color:#25CF43"/>
			<stop  offset="1" style="stop-color:#61FD7D"/>
		</linearGradient>
		<use xlink:href="#SVGID_1_"  style="overflow:visible;fill-rule:evenodd;clip-rule:evenodd;fill:url(#SVGID_2_);"/>
		<clipPath id="SVGID_3_">
			<use xlink:href="#SVGID_1_"  style="overflow:visible;"/>
		</clipPath>
	</g>
	<g id="WA_Logo">
		<g>
			<path class="st0" d="M453.6,147.5c-39.3-39.3-91.6-61-147.3-61c-114.8,0-208.1,93.4-208.2,208.1c0,36.7,9.6,72.5,27.8,104
				L96.4,506.4l110.4-28.9c30.4,16.6,64.6,25.3,99.5,25.3h0.1c0,0,0,0,0,0c114.7,0,208.1-93.4,208.2-208.1
				C514.5,239.1,492.9,186.8,453.6,147.5z M306.3,467.7L306.3,467.7c-31.1,0-61.6-8.4-88.1-24.1l-6.3-3.7L146.3,457l17.5-63.8
				l-4.1-6.5c-17.3-27.5-26.5-59.4-26.5-92.1c0-95.4,77.7-173,173.1-173c46.2,0,89.7,18,122.3,50.7c32.7,32.7,50.7,76.2,50.6,122.4
				C479.3,390.1,401.7,467.7,306.3,467.7z M401.2,338.1c-5.2-2.6-30.8-15.2-35.5-16.9c-4.8-1.7-8.2-2.6-11.7,2.6
				c-3.5,5.2-13.4,16.9-16.5,20.4c-3,3.5-6.1,3.9-11.3,1.3c-5.2-2.6-22-8.1-41.8-25.8c-15.5-13.8-25.9-30.8-28.9-36
				c-3-5.2-0.3-8,2.3-10.6c2.3-2.3,5.2-6.1,7.8-9.1c2.6-3,3.5-5.2,5.2-8.7c1.7-3.5,0.9-6.5-0.4-9.1c-1.3-2.6-11.7-28.2-16-38.6
				c-4.2-10.1-8.5-8.8-11.7-8.9c-3-0.2-6.5-0.2-10-0.2c-3.5,0-9.1,1.3-13.9,6.5c-4.8,5.2-18.2,17.8-18.2,43.4
				c0,25.6,18.6,50.3,21.2,53.8c2.6,3.5,36.7,56,88.9,78.5c12.4,5.4,22.1,8.6,29.7,11c12.5,4,23.8,3.4,32.8,2.1
				c10-1.5,30.8-12.6,35.1-24.7c4.3-12.1,4.3-22.6,3-24.7C409.9,342,406.4,340.7,401.2,338.1z"/>
		</g>
	</g>
</g>
</svg>
