<svg width="100" height="100" viewBox="0 0 100 100" fill="none" xmlns="http://www.w3.org/2000/svg">
<path d="M78.6339 78.9474C81.4146 78.9474 84.0814 80.0564 86.0476 82.0305C88.0138 84.0045 89.1185 86.6819 89.1185 89.4737C89.1185 92.2654 88.0138 94.9428 86.0476 96.9169C84.0814 98.891 81.4146 100 78.6339 100C75.8533 100 73.1865 98.891 71.2203 96.9169C69.254 94.9428 68.1494 92.2654 68.1494 89.4737C68.1494 86.6819 69.254 84.0045 71.2203 82.0305C73.1865 80.0564 75.8533 78.9474 78.6339 78.9474ZM78.6339 84.2105C77.2436 84.2105 75.9102 84.765 74.9271 85.7521C73.944 86.7391 73.3917 88.0778 73.3917 89.4737C73.3917 90.8696 73.944 92.2083 74.9271 93.1953C75.9102 94.1823 77.2436 94.7368 78.6339 94.7368C80.0243 94.7368 81.3577 94.1823 82.3408 93.1953C83.3239 92.2083 83.8762 90.8696 83.8762 89.4737C83.8762 88.0778 83.3239 86.7391 82.3408 85.7521C81.3577 84.765 80.0243 84.2105 78.6339 84.2105ZM31.4536 78.9474C34.2342 78.9474 36.901 80.0564 38.8672 82.0305C40.8335 84.0045 41.9381 86.6819 41.9381 89.4737C41.9381 92.2654 40.8335 94.9428 38.8672 96.9169C36.901 98.891 34.2342 100 31.4536 100C28.6729 100 26.0061 98.891 24.0399 96.9169C22.0737 94.9428 20.969 92.2654 20.969 89.4737C20.969 86.6819 22.0737 84.0045 24.0399 82.0305C26.0061 80.0564 28.6729 78.9474 31.4536 78.9474V78.9474ZM31.4536 84.2105C30.0632 84.2105 28.7298 84.765 27.7467 85.7521C26.7636 86.7391 26.2113 88.0778 26.2113 89.4737C26.2113 90.8696 26.7636 92.2083 27.7467 93.1953C28.7298 94.1823 30.0632 94.7368 31.4536 94.7368C32.8439 94.7368 34.1773 94.1823 35.1604 93.1953C36.1435 92.2083 36.6958 90.8696 36.6958 89.4737C36.6958 88.0778 36.1435 86.7391 35.1604 85.7521C34.1773 84.765 32.8439 84.2105 31.4536 84.2105ZM89.1185 15.7895H17.1579L30.51 47.3684H73.3917C74.2068 47.3697 75.0109 47.1789 75.7393 46.8114C76.4676 46.444 77.1 45.9101 77.5855 45.2526L93.3123 24.2H93.3175C93.8989 23.4177 94.2521 22.4884 94.3377 21.5161C94.4234 20.5438 94.238 19.5668 93.8023 18.6942C93.3667 17.8216 92.6979 17.0878 91.8707 16.5748C91.0436 16.0619 90.0907 15.79 89.1185 15.7895V15.7895ZM73.3917 52.6316H30.7511L26.7355 60.8421L26.2113 63.1579C26.2113 64.5538 26.7636 65.8925 27.7467 66.8795C28.7298 67.8665 30.0632 68.4211 31.4536 68.4211H89.1185V73.6842H31.4536C29.628 73.6851 27.8339 73.2074 26.2487 72.2985C24.6635 71.3895 23.3422 70.0807 22.4154 68.5016C21.4887 66.9225 20.9887 65.1279 20.9648 63.2952C20.941 61.4626 21.3942 59.6554 22.2796 58.0526L26.054 50.2947L7.01415 5.26316H0V0H10.4845L14.9352 10.5263H89.1185C91.0994 10.5265 93.0397 11.0901 94.7147 12.1519C96.3897 13.2136 97.7309 14.7301 98.5828 16.5255C99.4348 18.321 99.7626 20.3221 99.5285 22.297C99.2943 24.2718 98.5077 26.1397 97.2597 27.6842L81.9837 48.1368C81.0179 49.5253 79.7324 50.659 78.2364 51.4416C76.7405 52.2241 75.0785 52.6324 73.3917 52.6316V52.6316Z" fill="black"/>
</svg>
