<svg width="100" height="100" viewBox="0 0 100 100" fill="none" xmlns="http://www.w3.org/2000/svg">
<path d="M0 38.8889H7.65426V0H65.0612C84.1969 0 99.5054 11.1111 99.5054 25C99.5054 38.8889 84.1969 50 65.0612 50H22.9628V61.1111H68.8884V72.2222H22.9628V100H7.65426V72.2222H0V61.1111H7.65426V50H0V38.8889ZM65.0612 11.1111H22.9628V38.8889H65.0612C70.1363 38.8889 75.0035 37.4256 78.5922 34.8209C82.1808 32.2163 84.1969 28.6836 84.1969 25C84.1969 21.3164 82.1808 17.7837 78.5922 15.1791C75.0035 12.5744 70.1363 11.1111 65.0612 11.1111V11.1111Z" fill="black"/>
</svg>
