<svg width="100" height="100" viewBox="0 0 100 100" fill="none" xmlns="http://www.w3.org/2000/svg">
<g clip-path="url(#clip0)">
<path fill-rule="evenodd" clip-rule="evenodd" d="M49.988 75.8563C40.9641 75.8563 31.7963 70.4872 26.4458 63.3808C0.775976 63.3808 0 100.136 0 100.136H99.9698C99.9698 100.136 101.985 63.2177 73.1172 63.2177C67.7729 70.412 59.0119 75.8563 49.988 75.8563V75.8563Z" fill="black"/>
<path fill-rule="evenodd" clip-rule="evenodd" d="M71.4901 31.7936C71.4901 42.3686 61.8592 62.5904 49.9692 62.5904C38.098 62.5904 28.4609 42.3623 28.4609 31.7936C28.4609 21.2248 38.0918 12.6443 49.9692 12.6443C61.8592 12.6506 71.4901 21.2311 71.4901 31.7936V31.7936Z" fill="black"/>
<path fill-rule="evenodd" clip-rule="evenodd" d="M81.0897 22.6662C81.0897 20.6841 78.3362 19.0847 74.9194 19.0722V14.9889C74.9194 14.3805 75.151 0.136215 50.0443 0.136215C24.9502 0.136215 25.1817 14.3805 25.1817 14.9889V19.2164C25.1191 19.2164 25.0691 19.1976 25.0128 19.1976C21.6147 19.1976 18.88 20.772 18.88 22.7226V39.9964C18.88 41.9346 21.621 43.5152 25.0128 43.5152C28.4045 43.5152 31.158 41.9346 31.158 39.9964V22.7226C31.158 22.4529 30.989 22.2083 30.8889 21.9574V17.2469C30.8889 16.8142 29.0866 6.0635 50.0443 6.0635C71.0082 6.0635 68.8305 16.8142 68.8305 17.2469V22.2083C68.7929 22.3651 68.674 22.5031 68.674 22.6662V40.3351C68.674 42.3234 71.4463 43.9354 74.8819 43.9354C74.957 43.9354 75.0133 43.9103 75.0884 43.9103V50.3645H68.9306V56.4486H81.1523L81.0897 22.6662V22.6662Z" fill="black"/>
</g>
<defs>
<clipPath id="clip0">
<rect width="100" height="100" fill="white"/>
</clipPath>
</defs>
</svg>
