<svg width="100" height="100" viewBox="0 0 100 100" fill="none" xmlns="http://www.w3.org/2000/svg">
<g clip-path="url(#clip0)">
<path d="M101.843 51.1167C101.466 49.9991 100.532 49.5362 99.7596 50.077L88.7284 57.8002L81.2111 62.4926C80.0509 62.0611 77.087 60.9419 74.4246 59.8048L73.1189 59.1036C72.9276 59.0018 72.7311 58.9598 72.5388 58.9673C71.6156 58.5373 70.8131 58.1298 70.2725 57.7867C67.6797 56.1417 63.0473 52.2749 61.1802 49.9407C59.0708 47.3128 53.5755 37.5596 53.5204 37.4607C53.0536 36.6307 52.2459 36.3895 51.5888 36.8824C50.0773 38.0165 45.1745 41.0084 42.5786 39.9207C41.2085 39.3334 38.6729 37.3288 37.9556 36.0809C37.4773 35.2509 37.0698 32.259 37.285 31.3031C37.8454 30.8941 39.9703 31.4125 41.0109 31.6657C42.7918 32.1001 44.4759 32.5106 45.7764 31.9039C48.3089 30.7248 53.4154 24.4369 54.6463 22.8907C55.8678 22.248 61.8944 19.3205 66.0974 21.7296C68.3149 23.0016 70.471 23.4406 72.3943 23.4406C76.5537 23.4406 79.6216 21.3805 79.8492 21.2232L95.1687 9.42494C95.9276 8.83915 96.2146 7.47878 95.8091 6.3836C95.4026 5.28992 94.4587 4.87492 93.6987 5.46071L78.4479 17.2081C78.3948 17.244 72.9702 20.8307 67.2504 17.5527C62.2686 14.6941 55.8054 17.5362 53.8458 18.528C51.672 17.3399 45.5612 14.1892 42.8458 14.7825C40.3113 15.3428 32.9301 15.8447 29.9403 15.0492C28.6782 14.5353 19.091 7.05929 10.7129 0.287442C9.96025 -0.319328 9.0111 0.0657096 8.59006 1.14891C8.16903 2.2306 8.4362 3.60145 9.18679 4.20822C14.6665 8.63839 27.5991 18.9894 29.3207 19.4524C32.978 20.4292 40.8373 19.773 43.3147 19.2261C44.5393 18.958 47.866 20.2779 50.7779 21.7131C48.601 24.2796 46.002 27.0737 44.8169 27.625C44.241 27.8932 42.7387 27.5261 41.5307 27.231C39.0596 26.6287 36.5053 26.0055 35.0083 28.1943C33.3377 30.6619 34.3388 36.8404 35.553 38.9469C36.8058 41.1268 39.9713 43.4924 41.6981 44.231C45.0581 45.6378 49.704 43.0789 51.8778 41.6631C53.5225 44.5382 57.3149 51.0643 59.1363 53.3341C61.4089 56.1762 66.5039 60.3037 69.0135 61.8963C69.9907 62.5165 71.6427 63.2926 73.4079 64.0522L80.7215 67.979C81.104 68.2636 81.3941 68.794 81.5843 69.5581C81.9149 70.887 81.8484 72.6608 81.4211 73.9672C80.8992 75.5493 79.7286 76.3733 78.6194 76.1426C78.4 75.9598 78.1537 75.858 77.899 75.843L67.9833 68.4299C67.2192 67.8576 66.2773 68.2891 65.8812 69.3902C65.4851 70.4914 65.7824 71.8488 66.5476 72.4196L76.534 79.8836C76.5641 79.9046 76.5953 79.9166 76.6254 79.9376C76.7013 80.5069 76.6306 80.9024 76.5184 81.4238C76.4425 81.7743 76.3541 82.1848 76.3094 82.6598C75.6545 84.4037 74.172 85.1752 72.9006 84.3872L64.5308 79.145C64.4933 79.121 64.4549 79.112 64.4164 79.0926C64.3665 79.0671 64.3166 79.0401 64.2667 79.0237C64.2158 79.0057 64.1638 78.9967 64.1129 78.9877C64.063 78.9787 64.0141 78.9667 63.9652 78.9637C63.9122 78.9607 63.8602 78.9667 63.8083 78.9727C63.7604 78.9772 63.7126 78.9787 63.6658 78.9907C63.6138 79.0027 63.5639 79.0222 63.514 79.0416C63.4683 79.0596 63.4215 79.0746 63.3768 79.0986C63.329 79.124 63.2843 79.157 63.2386 79.1885C63.1939 79.2199 63.1491 79.2484 63.1065 79.2858C63.0639 79.3218 63.0254 79.3667 62.9859 79.4087C62.9443 79.4521 62.9038 79.4956 62.8653 79.545C62.829 79.593 62.7967 79.6469 62.7635 79.6993C62.7281 79.7563 62.6917 79.8102 62.6605 79.8716C62.6304 79.9301 62.6065 79.9945 62.5794 80.0574C62.5576 80.1098 62.5327 80.1548 62.514 80.2102C62.5077 80.2282 62.5056 80.2477 62.4994 80.2657C62.4942 80.2821 62.4859 80.2956 62.4817 80.3121C62.4661 80.363 62.4599 80.414 62.4474 80.4664C62.4287 80.5428 62.409 80.6192 62.3965 80.6956C62.385 80.7646 62.3798 80.835 62.3736 80.9054C62.3663 80.9803 62.358 81.0552 62.357 81.1301C62.3549 81.202 62.3591 81.2739 62.3622 81.3459C62.3653 81.4178 62.3674 81.4897 62.3746 81.5616C62.383 81.6335 62.3965 81.7039 62.409 81.7743C62.4214 81.8433 62.4329 81.9107 62.4495 81.9781C62.4672 82.0455 62.489 82.1114 62.5108 82.1759C62.5316 82.2403 62.5524 82.3047 62.5774 82.3646C62.6034 82.4276 62.6345 82.486 62.6647 82.5444C62.6938 82.6028 62.7229 82.6598 62.7562 82.7137C62.7905 82.7691 62.83 82.8171 62.8695 82.868C62.9069 82.916 62.9423 82.9654 62.9828 83.0089C63.0254 83.0538 63.0722 83.0928 63.119 83.1317C63.1523 83.1617 63.1824 83.1961 63.2178 83.2216L65.4487 84.8142C66.7721 85.7206 67.3398 88.0098 66.7129 89.92C66.4052 90.8579 65.8635 91.5666 65.1878 91.9141C64.5214 92.2572 63.8051 92.2048 63.1668 91.7673L56.8929 87.496L58.681 83.1242C60.4025 78.9308 59.4336 73.4923 56.5228 71.0023C56.5217 71.0023 56.5207 71.0008 56.5207 71.0008C55.2212 69.8951 53.7522 69.558 52.3696 69.8891C52.6534 65.8845 51.3861 61.8423 48.8776 59.6924C48.8755 59.6894 48.8724 59.6879 48.8692 59.6849C46.3773 57.5755 43.3563 57.8751 41.0702 60.0685C40.6159 58.1208 39.7 56.3859 38.3787 55.2548C35.446 52.7738 31.6618 54.1716 29.9434 58.368L25.7621 68.5662L15.5283 58.0159C15.4919 57.9785 15.4514 57.953 15.4129 57.9216C15.3755 57.8901 15.3422 57.8511 15.3027 57.8242L4.24039 50.0815C3.46693 49.5406 2.53233 50.0036 2.15704 51.1212C1.7807 52.2374 2.10402 53.5828 2.87852 54.1251L13.8224 61.7869L24.3181 72.6084C23.5145 76.4303 24.5884 80.7031 27.0845 82.8246C28.0648 83.6561 29.1408 84.0516 30.2033 84.0516C30.5453 84.0516 30.8842 83.9962 31.22 83.9153C30.9248 87.9544 32.2035 92.0325 34.737 94.1929C35.8566 95.1428 37.1052 95.6282 38.3776 95.6282C39.0253 95.6282 39.6792 95.5023 40.3248 95.2476C41.119 94.9345 41.8582 94.4326 42.5267 93.7839C42.9862 95.7196 43.9052 97.441 45.2223 98.5661C46.2006 99.3961 47.2755 99.7917 48.337 99.7917C50.4411 99.7917 52.4954 98.2395 53.6441 95.4499L55.3043 91.3883L61.832 95.8334C62.6148 96.3698 63.4537 96.6409 64.2958 96.6409C64.9487 96.6409 65.6036 96.4791 66.2378 96.1525C67.6995 95.4019 68.8711 93.8723 69.5343 91.8452C69.9939 90.4444 70.1508 88.9522 70.0573 87.5124L71.6645 88.5192C72.4036 88.9792 73.1761 89.1949 73.936 89.1949C76.1774 89.1949 78.32 87.3087 79.2712 84.1625C79.3575 83.8793 79.4012 83.5842 79.4012 83.2755C79.4053 83.1931 79.4594 82.9474 79.4978 82.7677C79.6122 82.2358 79.7661 81.5241 79.7858 80.6028C81.6571 80.2267 83.3703 78.5427 84.2415 75.8984C85.0254 73.5073 85.1325 70.4989 84.5222 68.0464C84.3143 67.2134 84.0222 66.4927 83.677 65.856L89.9988 61.9098C90.0103 61.9023 90.0196 61.8918 90.031 61.8828C90.0404 61.8768 90.0508 61.8753 90.0602 61.8678L101.123 54.1236C101.896 53.5768 102.219 52.2329 101.843 51.1167ZM28.6678 78.9472C27.2228 77.7202 26.7362 75.034 27.5825 72.9634L32.6287 60.6528C33.1921 59.2789 34.2057 58.5163 35.2464 58.5163C35.7734 58.5163 36.3078 58.7126 36.7933 59.1231C38.229 60.3531 38.7093 63.0349 37.863 65.1009L32.8189 77.4131C31.9706 79.4836 30.1066 80.1698 28.6678 78.9472ZM39.5014 90.9073C38.4047 91.3388 37.2757 91.1276 36.3203 90.3171C34.3211 88.6121 33.687 84.7887 34.9043 81.7968L41.4372 65.877C42.2564 63.8679 43.7149 62.7413 45.1963 62.7413C45.9116 62.7413 46.631 63.0034 47.2859 63.5563C49.2726 65.2627 49.8953 69.0726 48.6738 72.0496L42.1451 87.9679C41.5505 89.4256 40.6117 90.4699 39.5014 90.9073ZM50.9588 93.1576C50.1084 95.2237 48.2434 95.9098 46.8077 94.6903C45.3606 93.4558 44.8741 90.7695 45.7245 88.7005L50.7665 76.3898C51.331 75.0175 52.3425 74.2564 53.3821 74.2564C53.9113 74.2564 54.4467 74.4542 54.9353 74.8692C56.3679 76.0977 56.8461 78.7735 55.9978 80.8395L53.8822 86.0142C53.4435 86.1701 53.0536 86.5895 52.8457 87.2248C52.6814 87.7267 52.6638 88.269 52.7573 88.7664L50.9588 93.1576Z" fill="#231F20"/>
</g>
<defs>
<clipPath id="clip0">
<rect width="100" height="100" fill="white"/>
</clipPath>
</defs>
</svg>
